<?xml version="1.0" encoding="utf-8"?>
<!-- Generator: Adobe Illustrator 28.0.0, SVG Export Plug-In . SVG Version: 6.00 Build 0)  -->
<svg version="1.1" id="Layer_2_00000067938224394405827180000016244130983701885881_"
	 xmlns="http://www.w3.org/2000/svg" xmlns:xlink="http://www.w3.org/1999/xlink" x="0px" y="0px" viewBox="0 0 127.2 27"
	 style="enable-background:new 0 0 127.2 27;" xml:space="preserve">
<style type="text/css">
	.st0{fill:#FF82AC;}
	.st1{fill:#5E2B3D;}
</style>
<path class="st0" d="M12,0h103.2c6.6,0,12,5.4,12,12v3c0,6.6-5.4,12-12,12H12C5.4,27,0,21.7,0,15v-3C0,5.4,5.4,0,12,0z"/>
<g>
	<g>
		<path class="st1" d="M18.4,10v8.3h-2V10h-3.2V8.1h8.5V10C21.6,10,18.4,10,18.4,10z"/>
		<path class="st1" d="M23.4,7.8c0.7,0,1.2,0.5,1.2,1.2s-0.5,1.2-1.2,1.2S22.2,9.6,22.2,9S22.7,7.8,23.4,7.8z M22.4,18.4v-7.1h1.9
			v7.1H22.4z"/>
		<path class="st1" d="M26.3,18.4V7.9h1.9v10.4L26.3,18.4L26.3,18.4z"/>
		<path class="st1" d="M30.2,18.4v-7.1H32v0.9c0.4-0.7,1.3-1.1,2.1-1.1c1,0,1.7,0.4,2.1,1.2c0.6-0.9,1.3-1.2,2.2-1.2
			c1.3,0,2.6,0.8,2.6,2.7v4.6h-1.9v-4.2c0-0.8-0.4-1.3-1.2-1.3c-0.8,0-1.3,0.6-1.3,1.4v4.2h-1.9v-4.2c0-0.8-0.4-1.3-1.2-1.3
			s-1.3,0.6-1.3,1.4v4.2L30.2,18.4L30.2,18.4z"/>
		<path class="st1" d="M49.3,16.3c-0.4,1.2-1.5,2.2-3.2,2.2c-1.9,0-3.7-1.4-3.7-3.8c0-2.3,1.7-3.7,3.5-3.7c2.2,0,3.5,1.4,3.5,3.7
			c0,0.3,0,0.6,0,0.6h-5.1c0,0.9,0.8,1.6,1.8,1.6c0.9,0,1.4-0.5,1.6-1.1L49.3,16.3L49.3,16.3z M47.5,14c0-0.7-0.5-1.4-1.6-1.4
			c-1,0-1.5,0.8-1.6,1.4H47.5L47.5,14z"/>
		<path class="st1" d="M51,18.4V7.9h1.9v10.4L51,18.4L51,18.4z"/>
		<path class="st1" d="M61.7,17.1c0,0.5,0,1,0.1,1.3h-1.8c0-0.1-0.1-0.5-0.1-0.8c-0.3,0.6-1,1-2,1c-2,0-3.5-1.6-3.5-3.7
			s1.4-3.7,3.4-3.7c1.2,0,1.8,0.5,2,0.9V7.9h1.9C61.7,7.9,61.7,17.1,61.7,17.1z M58.1,16.8c1,0,1.7-0.8,1.7-2s-0.8-2-1.7-2
			s-1.8,0.7-1.8,2S57.1,16.8,58.1,16.8L58.1,16.8z"/>
		<path class="st1" d="M73.9,17.1c0,0.5,0,1,0.1,1.3h-1.8c0-0.1-0.1-0.5-0.1-0.8c-0.3,0.6-1,1-2,1c-2,0-3.5-1.6-3.5-3.7
			s1.4-3.7,3.4-3.7c1.2,0,1.8,0.5,2,0.9V7.9h1.9C73.9,7.9,73.9,17.1,73.9,17.1z M70.3,16.8c1,0,1.7-0.8,1.7-2s-0.8-2-1.7-2
			s-1.8,0.7-1.8,2S69.3,16.8,70.3,16.8L70.3,16.8z"/>
		<path class="st1" d="M76.8,7.8C77.5,7.8,78,8.3,78,9s-0.5,1.2-1.2,1.2S75.7,9.6,75.7,9S76.2,7.8,76.8,7.8z M75.9,18.4v-7.1h1.9
			v7.1H75.9z"/>
		<path class="st1" d="M81.1,18.3c0.1,0.8,0.8,1.3,1.7,1.3c1.2,0,1.9-0.6,1.9-2v-0.5c-0.3,0.5-0.9,0.9-2,0.9c-1.9,0-3.3-1.5-3.3-3.4
			c0-1.9,1.3-3.5,3.3-3.5c1.1,0,1.8,0.5,2,1v-0.8h1.8v6.3c0,2-1.1,3.7-3.7,3.7c-1.9,0-3.2-1.2-3.4-2.6L81.1,18.3L81.1,18.3z
			 M84.6,14.6c0-1.1-0.8-1.8-1.7-1.8s-1.7,0.7-1.7,1.8s0.7,1.8,1.7,1.8S84.6,15.7,84.6,14.6z"/>
		<path class="st1" d="M93.8,18.4h-1.9V7.9h1.9v3.9c0.5-0.6,1.2-0.8,1.9-0.8c1.8,0,2.6,1.2,2.6,2.8v4.5h-1.9v-4.1
			c0-0.8-0.4-1.4-1.3-1.4c-0.8,0-1.3,0.6-1.3,1.4V18.4z"/>
		<path class="st1" d="M106.7,16.3c-0.4,1.2-1.5,2.2-3.2,2.2c-1.9,0-3.7-1.4-3.7-3.8c0-2.3,1.7-3.7,3.5-3.7c2.2,0,3.5,1.4,3.5,3.7
			c0,0.3,0,0.6,0,0.6h-5.1c0,0.9,0.8,1.6,1.8,1.6c0.9,0,1.4-0.5,1.6-1.1L106.7,16.3L106.7,16.3z M104.9,14c0-0.7-0.5-1.4-1.6-1.4
			c-1,0-1.5,0.8-1.6,1.4H104.9L104.9,14z"/>
		<path class="st1" d="M112.7,13.2c-0.2,0-0.4-0.1-0.6-0.1c-1,0-1.8,0.5-1.8,2v3.2h-1.9v-7.1h1.9v1.1c0.4-0.9,1.4-1.1,2-1.1
			c0.2,0,0.3,0,0.4,0L112.7,13.2L112.7,13.2z"/>
	</g>
</g>
</svg>
