<?xml version="1.0" encoding="UTF-8"?>
<svg id="Layer_1" xmlns="http://www.w3.org/2000/svg" version="1.1" viewBox="0 0 116 116">
  <!-- Generator: Adobe Illustrator 29.4.0, SVG Export Plug-In . SVG Version: 2.1.0 Build 152)  -->
  <defs>
    <style>
      .st0 {
        stroke-width: .67px;
      }

      .st0, .st1, .st2, .st3 {
        fill: #fff;
      }

      .st0, .st4, .st5, .st6, .st7, .st2, .st8, .st3, .st9, .st10 {
        stroke-linecap: round;
      }

      .st0, .st4, .st5, .st6, .st7, .st2, .st8, .st3, .st10 {
        stroke-linejoin: round;
      }

      .st0, .st5, .st3, .st9, .st10 {
        stroke: #231f20;
      }

      .st11, .st7 {
        fill: none;
      }

      .st4 {
        stroke-width: 1.02px;
      }

      .st4, .st6, .st7, .st2, .st8 {
        stroke: #161010;
      }

      .st4, .st12 {
        fill: #161010;
      }

      .st5, .st6, .st7, .st8 {
        stroke-width: 1.16px;
      }

      .st5, .st8, .st9, .st10 {
        fill: #231f20;
      }

      .st3 {
        stroke-width: 1.3px;
      }

      .st9 {
        stroke-miterlimit: 10;
        stroke-width: 1.78px;
      }

      .st10 {
        stroke-width: 2.04px;
      }
    </style>
  </defs>
  <path class="st11" d="M37.43,94.88l.76-.24h0l.76-.24s.04.13.08.27l37.03,1.21c.06-.15.11-.26.12-.29l1.47.64c-.02.06-2.48,5.81-1.01,9.42.29.72.52,1.17.69,1.47,19.62-7.78,33.54-26.94,33.54-49.3,0-29.24-23.79-53.02-53.03-53.02S4.81,28.58,4.81,57.82c0,21.87,13.31,40.68,32.25,48.78.32-.81.59-1.48.78-1.94,1.49-3.64-.39-9.71-.41-9.78Z"/>
  <polygon class="st1" points="38.2 94.64 38.2 94.64 38.2 94.64 38.2 94.64"/>
  <path class="st1" d="M39.32,105.26c-.19.46-.45,1.13-.77,1.93,5.98,2.35,12.49,3.65,19.29,3.65,6.31,0,12.37-1.11,17.99-3.15-.2-.38-.42-.85-.67-1.45-1.54-3.78.39-9.09.91-10.37l-37.03-1.21c.37,1.26,1.82,6.83.28,10.59h0Z"/>
  <path class="st12" d="M38.96,94.4l-.76.24.84.03c-.04-.14-.07-.24-.08-.27Z"/>
  <path class="st12" d="M38.58,104.96c1.62-3.96-.38-10.31-.38-10.32l-.76.24c.02.06,1.9,6.13.41,9.78-.19.46-.46,1.14-.78,1.94.24.1.49.2.74.3.32-.81.59-1.48.78-1.94h-.01Z"/>
  <path class="st12" d="M77.65,96.23l-1.47-.64s-.06.14-.12.29l.85.03s-2.64,6.07-1.02,10.04c.27.65.49,1.12.68,1.46.25-.1.5-.2.75-.3-.17-.3-.39-.75-.69-1.47-1.47-3.61.99-9.36,1.01-9.42h.01Z"/>
  <path class="st12" d="M39.32,105.26c1.54-3.77.09-9.33-.28-10.59l-.84-.03h0s2,6.36.38,10.32c-.19.46-.46,1.13-.78,1.94.25.1.5.2.74.29.32-.8.59-1.47.77-1.93h0Z"/>
  <path class="st12" d="M76.92,95.91l-.85-.03c-.52,1.29-2.45,6.59-.91,10.37.24.6.46,1.07.67,1.45.25-.09.5-.19.75-.29-.19-.35-.41-.81-.68-1.46-1.62-3.97,1.02-10.04,1.02-10.04Z"/>
  <path class="st1" d="M57.83,1.71C26.89,1.71,1.72,26.88,1.72,57.82c0,23.17,14.12,43.1,34.2,51.66.24.1.5.2.74.3.25.1.5.2.74.29,6.34,2.49,13.22,3.87,20.43,3.87s13.61-1.28,19.75-3.6c.25-.09.5-.2.75-.29.25-.1.5-.19.74-.29,20.44-8.39,34.87-28.5,34.87-51.93.01-30.95-25.17-56.12-56.11-56.12ZM77.32,107.12c-.25.1-.5.2-.75.3-.25.1-.5.19-.75.29-5.62,2.03-11.67,3.15-17.99,3.15-6.81,0-13.31-1.3-19.29-3.65-.25-.1-.5-.19-.74-.29-.25-.1-.5-.2-.74-.3C18.11,98.5,4.8,79.69,4.8,57.82,4.8,28.58,28.59,4.79,57.83,4.79s53.03,23.79,53.03,53.02c0,22.36-13.92,41.51-33.54,49.3h0Z"/>
  <path class="st1" d="M90.21,57.81c-.05-24.62-14.3-45-31.87-45s-31.59,20.64-31.86,45c-.2-.16-5.53-3.79-4.52,3.94.89,6.81,4.94,12.36,6.42,14.51,1.65,7.11,4.45,13.21,8.73,17.71,4.94,5.18,15.73,9.23,21.23,9.23s16.31-4.05,21.25-9.25c4.35-4.57,7.17-10.79,8.8-18.04,1.82-2.62,5.27-8,6.11-14.49,1.02-7.84-4.29-3.61-4.29-3.61Z"/>
  <path class="st12" d="M89.91,58.44c-.35-1.18-.51-3.08-.53-4.38-.55-8.69-2.92-17.38-7.4-24.87-12.4-20.71-34.65-20.72-46.97.09-5.1,8.54-7.57,18.57-7.73,28.54,0,.43-.36.78-.79.77-.18,0-.35-.07-.48-.17-.86-.53-2.32-1.36-3.01-.36-.6,1.18-.39,2.7-.21,4.06.44,3,1.52,5.86,2.93,8.55.94,1.9,2.23,3.62,3.34,5.45.8,3.51,1.93,6.95,3.52,10.16,1.59,3.19,3.66,6.22,6.33,8.52,2.71,2.29,5.94,4.01,9.26,5.36,7.77,3.24,12.96,3.1,20.69-.16,3.3-1.4,6.53-3.11,9.2-5.44,2.62-2.36,4.66-5.4,6.24-8.6,1.66-3.28,2.64-6.86,3.57-10.42,2.3-3.3,4.19-6.9,5.26-10.74.59-2.36,2.43-9.99-2.34-6.53-.25.22-.59.32-.87.18h-.01ZM90.52,57.17c-.18-.13-.6-.07-.72.06l.02-.02.04-.03.09-.06.17-.12c1.32-.97,3.74-1.74,4.7.13,1.11,2.62.18,5.43-.4,8.03-.95,3.67-3.64,8.75-5.39,10.9-2.66,11.73-8.08,20.66-19.73,25.07-8.02,3.35-13.54,3.49-21.6.1-7.19-2.75-12.98-7.34-16.31-14.39-1.56-2.92-3.22-7.91-3.6-10.2-3.61-5.13-6.94-11.13-6.68-17.62.31-3.52,3.44-3.6,5.85-1.83l-1.28.59c.12-10.21,2.53-20.54,7.81-29.41,12.97-21.84,36.76-21.77,49.74.03,4.76,8.01,7.16,17.25,7.59,26.51.09.84-.05,1.35-.33,2.24h0s.03.02.03.02Z"/>
  <ellipse class="st6" cx="46.27" cy="62.83" rx="1.93" ry="1.14"/>
  <ellipse class="st6" cx="71.42" cy="62.58" rx="1.93" ry="1.14"/>
  <path class="st8" d="M75.56,19.07s-.77-.04,1.62-3.79"/>
  <line class="st7" x1="69.25" y1="14.98" x2="70.78" y2="11.95"/>
  <path class="st5" d="M66.44,13.23"/>
  <path class="st5" d="M64.9,16.25"/>
  <line class="st7" x1="61.23" y1="12.68" x2="61.07" y2="9.39"/>
  <line class="st7" x1="52.72" y1="12.93" x2="53.57" y2="10.29"/>
  <line class="st7" x1="46.24" y1="15.83" x2="43.68" y2="13.23"/>
  <line class="st7" x1="79.31" y1="22.48" x2="81.52" y2="20.13"/>
  <line class="st7" x1="85.7" y1="34.75" x2="87.91" y2="32.4"/>
  <path class="st5" d="M77.18,20.13"/>
  <path class="st5" d="M74.96,22.48"/>
  <line class="st7" x1="39.08" y1="20.52" x2="36.91" y2="18.21"/>
  <path class="st5" d="M41.26,17.34"/>
  <path class="st5" d="M43.94,19.88"/>
  <line class="st7" x1="30.9" y1="33.43" x2="28.22" y2="30.73"/>
  <path class="st5" d="M27.96,41.99"/>
  <path class="st12" d="M45.21,83.36c7.89,2.99,17.24,2.79,25.13-.11.68-.29,1.15.75.46,1.06-6.2,2.65-13.06,2.83-19.63,1.83-2.19-.38-4.32-.87-6.45-1.73-.3-.12-.44-.46-.32-.76.13-.32.5-.45.81-.3h0Z"/>
  <path class="st12" d="M79.13,62.84c-4.13-1.63-8.69-1.82-13-.74-.64.15-.98-.81-.38-1.09,3.23-1.76,7.24-2.04,10.72-.85,1.17.39,2.26.92,3.28,1.71.25.2.3.56.11.82-.18.23-.48.29-.73.17h0s0-.02,0-.02Z"/>
  <path class="st12" d="M83.27,54.58c-6.62-1.97-13.65-2.28-20.49-1.43-.69.1-.93-.93-.25-1.13,5.19-1.63,10.85-1.8,16.13-.47,1.77.45,3.47,1.06,5.11,1.98.28.16.38.51.22.79-.15.26-.45.36-.72.26h0Z"/>
  <path class="st12" d="M34.71,53.53c4.8-2.75,10.54-3.43,15.95-2.77,1.81.21,3.58.66,5.29,1.26.3.11.46.44.36.75-.09.26-.35.41-.61.39-6.87-.6-13.82-.39-20.49,1.43-.65.23-1.09-.7-.5-1.05h0Z"/>
  <path class="st12" d="M38.31,61.69c3.97-3.03,9.81-3.04,14.02-.53.28.16.37.52.21.8-.13.22-.38.32-.61.28-2.2-.48-4.35-.83-6.59-.72-2.19.08-4.4.55-6.49,1.18-.59.2-1.03-.64-.53-1.01h0Z"/>
  <line class="st7" x1="86.38" y1="25.25" x2="83.44" y2="28.02"/>
  <line class="st7" x1="34.57" y1="26.01" x2="32.18" y2="24.35"/>
  <path class="st12" d="M57.3,56.7c-.09,2.94-.4,6.01-.86,8.92-.42,1.91-.55,4.03-1.9,5.76-1.16,1.03-2.44,1.14-3.75,1.4-3.05.4-6.01.35-9,.03-1.79-.27-4.02-.37-5.67-1.62-1.01-1.03-1.44-2.38-1.92-3.64-1.04-3.29-1.98-6.57-1.87-10.08.03-.37.14-.93.38-1.29.21-.38.63-.62.98-.74,5.04-1.56,20.95-4.65,23.61,1.27h0ZM56.15,56.89c-3.36-3.99-16.81-.88-21.41.56-.12.04-.21.08-.31.13.05-.02.2-.18.21-.2-.07,2.8.87,6.41,1.87,9.34.33.88.69,1.84,1.22,2.54,1.15.71,2.78.77,4.32.99,3.4.25,7,.46,10.26-.37.64-.24.51-.17.82-.78,1.28-3.11,1.86-6.91,2.59-10.25.09-.48.28-1.39.37-1.86l.03-.13s0,.02.03.03h0Z"/>
  <path class="st12" d="M61.06,56.89l.03-.03.02.13c.09.47.26,1.39.35,1.88.72,3.38,1.24,7.22,2.58,10.34.07.18.19.34.28.49.11.12.36.19.66.31,3.34.81,6.97.62,10.44.36,1.53-.18,3.08-.34,4.3-.92.68-.69,1.01-1.79,1.4-2.73.98-2.94,1.89-6.11,1.88-9.15-.01-.13-.04-.24-.04-.27,0-.02,0,.02.01.03,0,0,.02.02.07.09-4.14-1.29-18.55-4.68-21.98-.52h0ZM59.92,56.69c2.65-5.88,19.05-2.75,24.08-1.1,2.69,1.06-.1,9.71-.78,11.88-.61,1.54-1.19,3.58-2.95,4.23-4.53,1.43-8.96,1.4-13.64.96-1.45-.26-3.35-.45-4.23-1.91-.1-.15-.26-.45-.32-.62-1.45-3.99-1.71-8.03-2.1-12.17,0-.38-.08-.89-.06-1.27h0Z"/>
  <polyline class="st7" points="60.56 56.51 58.58 55.81 56.72 56.79"/>
  <path class="st12" d="M33.08,58.2c-2.82.29-5.4-.77-7.98-1.75l.48-.11-.74.58c-.6.47-1.31-.44-.72-.91l.74-.58c.14-.12.32-.12.48-.11,2.75.19,5.54.3,7.98,1.75.46.3.29,1.06-.25,1.13h0Z"/>
  <path class="st12" d="M83.95,56.81c.41-.77,1.01-.76,1.57-.9,1.76-.38,3.52-.68,5.34-.71.29-.04.83.56,1.05.7.25.2.29.57.09.82-.5.6-1.13-.21-1.54-.5l.5.11c-1.06.52-2.16.89-3.26,1.24-.55.16-1.11.33-1.67.46-.56.13-1.09.4-1.8-.1-.37-.26-.48-.74-.27-1.13h-.01Z"/>
  <path class="st4" d="M62.63,76.68s-2.72,1.75-4.63,1.63"/>
  <path class="st7" d="M53.91,90.59s1.71.71,4.48.71,4.35-.77,4.35-.77"/>
  <circle class="st12" cx="49.69" cy="96.07" r=".58"/>
  <circle class="st12" cx="53.27" cy="98.24" r=".58"/>
  <circle class="st12" cx="68.68" cy="97.22" r=".58"/>
  <circle class="st12" cx="65.1" cy="97.22" r=".58"/>
  <circle class="st12" cx="63.37" cy="99.26" r=".58"/>
  <circle class="st12" cx="55.57" cy="96.58" r=".58"/>
  <circle class="st12" cx="47.26" cy="98.17" r=".58"/>
  <circle class="st12" cx="50.36" cy="98.63" r=".58"/>
  <circle class="st12" cx="54.54" cy="100.61" r=".58"/>
  <circle class="st12" cx="58.73" cy="101.27" r=".58"/>
  <circle class="st12" cx="61.37" cy="100.39" r=".58"/>
  <circle class="st12" cx="66.43" cy="99.51" r=".58"/>
  <circle class="st12" cx="43.49" cy="95.68" r=".58"/>
  <circle class="st12" cx="41.11" cy="94.31" r=".58"/>
  <circle class="st12" cx="64.01" cy="94.97" r=".58"/>
  <circle class="st12" cx="58.95" cy="95.41" r=".58"/>
  <circle class="st12" cx="46.18" cy="95.02" r=".58"/>
  <circle class="st12" cx="58.07" cy="99.01" r=".58"/>
  <circle class="st12" cx="60.56" cy="97.66" r=".58"/>
  <circle class="st12" cx="73.73" cy="94.28" r=".58"/>
  <circle class="st12" cx="72.57" cy="96.07" r=".58"/>
  <circle class="st12" cx="69.51" cy="94.53" r=".58"/>
  <circle class="st12" cx="76.7" cy="91.36" r=".58"/>
  <circle class="st12" cx="84.27" cy="76.09" r=".58"/>
  <circle class="st12" cx="85.15" cy="78.51" r=".58"/>
  <circle class="st12" cx="81.63" cy="81.37" r=".58"/>
  <circle class="st12" cx="82.42" cy="83.22" r=".58"/>
  <circle class="st12" cx="80.22" cy="85.64" r=".58"/>
  <circle class="st12" cx="81.1" cy="88.06" r=".58"/>
  <circle class="st12" cx="77.14" cy="89.16" r=".58"/>
  <circle class="st12" cx="77.58" cy="85.42" r=".58"/>
  <circle class="st12" cx="80" cy="82.12" r=".58"/>
  <circle class="st12" cx="82.2" cy="78.81" r=".58"/>
  <circle class="st12" cx="84.4" cy="81.02" r=".58"/>
  <circle class="st12" cx="79.56" cy="90.04" r=".58"/>
  <circle class="st12" cx="76.92" cy="93.13" r=".58"/>
  <circle class="st12" cx="71.41" cy="91.36" r=".58"/>
  <circle class="st12" cx="74.5" cy="89.16" r=".58"/>
  <circle class="st12" cx="40.59" cy="88.5" r=".58"/>
  <circle class="st12" cx="46.53" cy="92.47" r=".58"/>
  <circle class="st12" cx="52.7" cy="95.11" r=".58"/>
  <circle class="st12" cx="39.93" cy="91.8" r=".58"/>
  <circle class="st12" cx="38.03" cy="89.6" r=".58"/>
  <circle class="st12" cx="34.86" cy="85.64" r=".58"/>
  <circle class="st12" cx="38.39" cy="85.86" r=".58"/>
  <circle class="st12" cx="33.76" cy="81.9" r=".58"/>
  <circle class="st12" cx="33.98" cy="78.81" r=".58"/>
  <circle class="st12" cx="35.74" cy="82.56" r=".58"/>
  <circle class="st12" cx="35.96" cy="88.28" r=".58"/>
  <circle class="st12" cx="33.32" cy="83.88" r=".58"/>
  <circle class="st12" cx="31.12" cy="79.03" r=".58"/>
  <circle class="st12" cx="43.45" cy="92.25" r=".58"/>
  <path class="st9" d="M78.57,95.23"/>
  <path class="st9" d="M87.98,99.02"/>
  <path class="st10" d="M28.67,100.67"/>
  <path class="st10" d="M37.7,94.9"/>
  <path class="st3" d="M28.42,76.08"/>
  <path class="st3" d="M26.61,54.86"/>
  <path class="st2" d="M90.32,66.92c-.22.99,1.7-4.07,2.22-6.61s-2,.22-2,.22"/>
  <path class="st2" d="M26.32,67.14c.22.99-1.7-4.07-2.22-6.61s2,.22,2,.22"/>
  <path class="st0" d="M89.88,64.5"/>
  <path class="st1" d="M43.75,64.19s2.15-.58,1.82-.99-2.81-.5-2.31.25l.5.74h0Z"/>
  <path class="st1" d="M69.18,64.19s2.15-.58,1.82-.99-2.81-.5-2.31.25l.5.74h-.01Z"/>
</svg>